<?xml version="1.0" encoding="us-ascii" standalone="no"?><svg xmlns="http://www.w3.org/2000/svg" xmlns:xlink="http://www.w3.org/1999/xlink" contentStyleType="text/css" height="823px" preserveAspectRatio="none" style="width:793px;height:823px;background:#FFFFFF;" version="1.1" viewBox="0 0 793 823" width="793px" zoomAndPan="magnify"><defs/><g><rect fill="#ADD8E6" height="811.8438" style="stroke:#181818;stroke-width:0.5;" width="577" x="46" y="6"/><text fill="#000000" font-family="sans-serif" font-size="13" font-weight="bold" lengthAdjust="spacing" textLength="81" x="294" y="19.4951">Raspberry Pi</text><rect fill="#90EE90" height="811.8438" style="stroke:#181818;stroke-width:0.5;" width="151" x="636.5" y="6"/><text fill="#000000" font-family="sans-serif" font-size="13" font-weight="bold" lengthAdjust="spacing" textLength="127" x="648.5" y="19.4951">Raspberry Pico PCB</text><line style="stroke:#181818;stroke-width:0.5;stroke-dasharray:5.0,5.0;" x1="22.5" x2="22.5" y1="103.9609" y2="734.2344"/><line style="stroke:#181818;stroke-width:0.5;stroke-dasharray:5.0,5.0;" x1="92" x2="92" y1="103.9609" y2="734.2344"/><rect fill="#FFFFFF" height="535.9219" style="stroke:#181818;stroke-width:1.0;" width="10" x="87" y="134.3125"/><line style="stroke:#181818;stroke-width:0.5;stroke-dasharray:5.0,5.0;" x1="204" x2="204" y1="103.9609" y2="734.2344"/><line style="stroke:#181818;stroke-width:0.5;stroke-dasharray:5.0,5.0;" x1="314" x2="314" y1="103.9609" y2="734.2344"/><rect fill="#FFFFFF" height="523.5703" style="stroke:#181818;stroke-width:1.0;" width="10" x="309" y="164.6641"/><line style="stroke:#181818;stroke-width:0.5;stroke-dasharray:5.0,5.0;" x1="440" x2="440" y1="103.9609" y2="734.2344"/><line style="stroke:#181818;stroke-width:0.5;stroke-dasharray:5.0,5.0;" x1="571" x2="571" y1="103.9609" y2="734.2344"/><rect fill="#FFFFFF" height="511.2188" style="stroke:#181818;stroke-width:1.0;" width="10" x="566" y="195.0156"/><line style="stroke:#181818;stroke-width:0.5;stroke-dasharray:5.0,5.0;" x1="712" x2="712" y1="103.9609" y2="734.2344"/><text fill="#000000" font-family="sans-serif" font-size="14" lengthAdjust="spacing" textLength="29" x="5" y="100.8848">User</text><ellipse cx="22.5" cy="34.8516" fill="#E2E2F0" rx="8" ry="8" style="stroke:#181818;stroke-width:0.5;"/><path d="M22.5,42.8516 L22.5,69.8516 M9.5,50.8516 L35.5,50.8516 M22.5,69.8516 L9.5,84.8516 M22.5,69.8516 L35.5,84.8516 " fill="none" style="stroke:#181818;stroke-width:0.5;"/><rect fill="#E2E2F0" height="31.6094" rx="2.5" ry="2.5" style="stroke:#181818;stroke-width:0.5;" width="84" x="50" y="71.3516"/><text fill="#000000" font-family="sans-serif" font-size="14" lengthAdjust="spacing" textLength="70" x="57" y="92.8848">FileReader</text><path d="M152,76.3516 L256,76.3516 C261,76.3516 261,90.1563 261,90.1563 C261,90.1563 261,103.9609 256,103.9609 L152,103.9609 C147,103.9609 147,90.1563 147,90.1563 C147,90.1563 147,76.3516 152,76.3516 " fill="#E2E2F0" style="stroke:#181818;stroke-width:0.5;"/><path d="M256,76.3516 C251,76.3516 251,90.1563 251,90.1563 C251,103.9609 256,103.9609 256,103.9609 " fill="none" style="stroke:#181818;stroke-width:0.5;"/><text fill="#000000" font-family="sans-serif" font-size="14" lengthAdjust="spacing" textLength="94" x="152" y="95.8848">Sample Queue</text><rect fill="#E2E2F0" height="31.6094" rx="2.5" ry="2.5" style="stroke:#181818;stroke-width:0.5;" width="72" x="278" y="71.3516"/><text fill="#000000" font-family="sans-serif" font-size="14" lengthAdjust="spacing" textLength="58" x="285" y="92.8848">Classifier</text><path d="M391.5,76.3516 L488.5,76.3516 C493.5,76.3516 493.5,90.1563 493.5,90.1563 C493.5,90.1563 493.5,103.9609 488.5,103.9609 L391.5,103.9609 C386.5,103.9609 386.5,90.1563 386.5,90.1563 C386.5,90.1563 386.5,76.3516 391.5,76.3516 " fill="#E2E2F0" style="stroke:#181818;stroke-width:0.5;"/><path d="M488.5,76.3516 C483.5,76.3516 483.5,90.1563 483.5,90.1563 C483.5,103.9609 488.5,103.9609 488.5,103.9609 " fill="none" style="stroke:#181818;stroke-width:0.5;"/><text fill="#000000" font-family="sans-serif" font-size="14" lengthAdjust="spacing" textLength="87" x="391.5" y="95.8848">Result Queue</text><rect fill="#E2E2F0" height="31.6094" rx="2.5" ry="2.5" style="stroke:#181818;stroke-width:0.5;" width="96" x="523" y="71.3516"/><text fill="#000000" font-family="sans-serif" font-size="14" lengthAdjust="spacing" textLength="82" x="530" y="92.8848">SerialSender</text><rect fill="#E2E2F0" height="31.6094" rx="2.5" ry="2.5" style="stroke:#181818;stroke-width:0.5;" width="133" x="645.5" y="71.3516"/><text fill="#000000" font-family="sans-serif" font-size="14" lengthAdjust="spacing" textLength="119" x="652.5" y="92.8848">MiOTY Transmitter</text><text fill="#000000" font-family="sans-serif" font-size="14" lengthAdjust="spacing" textLength="29" x="5" y="808.7676">User</text><ellipse cx="22.5" cy="742.7344" fill="#E2E2F0" rx="8" ry="8" style="stroke:#181818;stroke-width:0.5;"/><path d="M22.5,750.7344 L22.5,777.7344 M9.5,758.7344 L35.5,758.7344 M22.5,777.7344 L9.5,792.7344 M22.5,777.7344 L35.5,792.7344 " fill="none" style="stroke:#181818;stroke-width:0.5;"/><rect fill="#E2E2F0" height="31.6094" rx="2.5" ry="2.5" style="stroke:#181818;stroke-width:0.5;" width="84" x="50" y="734.2344"/><text fill="#000000" font-family="sans-serif" font-size="14" lengthAdjust="spacing" textLength="70" x="57" y="755.7676">FileReader</text><path d="M152,734.2344 L256,734.2344 C261,734.2344 261,748.0391 261,748.0391 C261,748.0391 261,761.8438 256,761.8438 L152,761.8438 C147,761.8438 147,748.0391 147,748.0391 C147,748.0391 147,734.2344 152,734.2344 " fill="#E2E2F0" style="stroke:#181818;stroke-width:0.5;"/><path d="M256,734.2344 C251,734.2344 251,748.0391 251,748.0391 C251,761.8438 256,761.8438 256,761.8438 " fill="none" style="stroke:#181818;stroke-width:0.5;"/><text fill="#000000" font-family="sans-serif" font-size="14" lengthAdjust="spacing" textLength="94" x="152" y="753.7676">Sample Queue</text><rect fill="#E2E2F0" height="31.6094" rx="2.5" ry="2.5" style="stroke:#181818;stroke-width:0.5;" width="72" x="278" y="734.2344"/><text fill="#000000" font-family="sans-serif" font-size="14" lengthAdjust="spacing" textLength="58" x="285" y="755.7676">Classifier</text><path d="M391.5,734.2344 L488.5,734.2344 C493.5,734.2344 493.5,748.0391 493.5,748.0391 C493.5,748.0391 493.5,761.8438 488.5,761.8438 L391.5,761.8438 C386.5,761.8438 386.5,748.0391 386.5,748.0391 C386.5,748.0391 386.5,734.2344 391.5,734.2344 " fill="#E2E2F0" style="stroke:#181818;stroke-width:0.5;"/><path d="M488.5,734.2344 C483.5,734.2344 483.5,748.0391 483.5,748.0391 C483.5,761.8438 488.5,761.8438 488.5,761.8438 " fill="none" style="stroke:#181818;stroke-width:0.5;"/><text fill="#000000" font-family="sans-serif" font-size="14" lengthAdjust="spacing" textLength="87" x="391.5" y="753.7676">Result Queue</text><rect fill="#E2E2F0" height="31.6094" rx="2.5" ry="2.5" style="stroke:#181818;stroke-width:0.5;" width="96" x="523" y="734.2344"/><text fill="#000000" font-family="sans-serif" font-size="14" lengthAdjust="spacing" textLength="82" x="530" y="755.7676">SerialSender</text><rect fill="#E2E2F0" height="31.6094" rx="2.5" ry="2.5" style="stroke:#181818;stroke-width:0.5;" width="133" x="645.5" y="734.2344"/><text fill="#000000" font-family="sans-serif" font-size="14" lengthAdjust="spacing" textLength="119" x="652.5" y="755.7676">MiOTY Transmitter</text><polygon fill="#181818" points="75,130.3125,85,134.3125,75,138.3125,79,134.3125" style="stroke:#181818;stroke-width:1.0;"/><line style="stroke:#181818;stroke-width:1.0;" x1="22.5" x2="81" y1="134.3125" y2="134.3125"/><text fill="#000000" font-family="sans-serif" font-size="13" lengthAdjust="spacing" textLength="26" x="29.5" y="129.4561">start</text><polygon fill="#181818" points="297,160.6641,307,164.6641,297,168.6641,301,164.6641" style="stroke:#181818;stroke-width:1.0;"/><line style="stroke:#181818;stroke-width:1.0;" x1="22.5" x2="303" y1="164.6641" y2="164.6641"/><text fill="#000000" font-family="sans-serif" font-size="13" lengthAdjust="spacing" textLength="26" x="29.5" y="159.8076">start</text><polygon fill="#181818" points="554,191.0156,564,195.0156,554,199.0156,558,195.0156" style="stroke:#181818;stroke-width:1.0;"/><line style="stroke:#181818;stroke-width:1.0;" x1="22.5" x2="560" y1="195.0156" y2="195.0156"/><text fill="#000000" font-family="sans-serif" font-size="13" lengthAdjust="spacing" textLength="26" x="29.5" y="190.1592">start</text><path d="M57,207.0156 L130,207.0156 L130,215.3672 L120,225.3672 L57,225.3672 L57,207.0156 " fill="#EEEEEE" style="stroke:#000000;stroke-width:1.5;"/><rect fill="none" height="148.4063" style="stroke:#000000;stroke-width:1.5;" width="227" x="57" y="207.0156"/><text fill="#000000" font-family="sans-serif" font-size="13" font-weight="bold" lengthAdjust="spacing" textLength="28" x="72" y="221.5107">loop</text><text fill="#000000" font-family="sans-serif" font-size="11" font-weight="bold" lengthAdjust="spacing" textLength="72" x="145" y="220.4346">[more files?]</text><line style="stroke:#181818;stroke-width:1.0;" x1="97" x2="139" y1="257.7188" y2="257.7188"/><line style="stroke:#181818;stroke-width:1.0;" x1="139" x2="139" y1="257.7188" y2="270.7188"/><line style="stroke:#181818;stroke-width:1.0;" x1="98" x2="139" y1="270.7188" y2="270.7188"/><polygon fill="#181818" points="108,266.7188,98,270.7188,108,274.7188,104,270.7188" style="stroke:#181818;stroke-width:1.0;"/><text fill="#000000" font-family="sans-serif" font-size="13" lengthAdjust="spacing" textLength="93" x="104" y="252.8623">read&amp; chunk file</text><path d="M76,282.7188 L149,282.7188 L149,291.0703 L139,301.0703 L76,301.0703 L76,282.7188 " fill="#EEEEEE" style="stroke:#000000;stroke-width:1.5;"/><rect fill="none" height="58.7031" style="stroke:#000000;stroke-width:1.5;" width="183" x="76" y="282.7188"/><text fill="#000000" font-family="sans-serif" font-size="13" font-weight="bold" lengthAdjust="spacing" textLength="28" x="91" y="297.2139">loop</text><text fill="#000000" font-family="sans-serif" font-size="11" font-weight="bold" lengthAdjust="spacing" textLength="79" x="164" y="296.1377">[chunk_count]</text><polygon fill="#181818" points="192,329.4219,202,333.4219,192,337.4219,196,333.4219" style="stroke:#181818;stroke-width:1.0;"/><line style="stroke:#181818;stroke-width:1.0;" x1="97" x2="198" y1="333.4219" y2="333.4219"/><text fill="#000000" font-family="sans-serif" font-size="13" lengthAdjust="spacing" textLength="81" x="104" y="328.5654">enqeue chunk</text><path d="M188,373.4219 L261,373.4219 L261,381.7734 L251,391.7734 L188,391.7734 L188,373.4219 " fill="#EEEEEE" style="stroke:#000000;stroke-width:1.5;"/><rect fill="none" height="132.4063" style="stroke:#000000;stroke-width:1.5;" width="268" x="188" y="373.4219"/><text fill="#000000" font-family="sans-serif" font-size="13" font-weight="bold" lengthAdjust="spacing" textLength="28" x="203" y="387.917">loop</text><text fill="#000000" font-family="sans-serif" font-size="11" font-weight="bold" lengthAdjust="spacing" textLength="99" x="276" y="386.8408">[not interrupted?]</text><polygon fill="#181818" points="215,420.125,205,424.125,215,428.125,211,424.125" style="stroke:#181818;stroke-width:1.0;"/><line style="stroke:#181818;stroke-width:1.0;" x1="209" x2="308" y1="424.125" y2="424.125"/><text fill="#000000" font-family="sans-serif" font-size="13" lengthAdjust="spacing" textLength="81" x="221" y="419.2686">deqeue chunk</text><line style="stroke:#181818;stroke-width:1.0;" x1="319" x2="361" y1="454.4766" y2="454.4766"/><line style="stroke:#181818;stroke-width:1.0;" x1="361" x2="361" y1="454.4766" y2="467.4766"/><line style="stroke:#181818;stroke-width:1.0;" x1="320" x2="361" y1="467.4766" y2="467.4766"/><polygon fill="#181818" points="330,463.4766,320,467.4766,330,471.4766,326,467.4766" style="stroke:#181818;stroke-width:1.0;"/><text fill="#000000" font-family="sans-serif" font-size="13" lengthAdjust="spacing" textLength="83" x="326" y="449.6201">classify chunk</text><polygon fill="#181818" points="428,493.8281,438,497.8281,428,501.8281,432,497.8281" style="stroke:#181818;stroke-width:1.0;"/><line style="stroke:#181818;stroke-width:1.0;" x1="319" x2="434" y1="497.8281" y2="497.8281"/><text fill="#000000" font-family="sans-serif" font-size="13" lengthAdjust="spacing" textLength="102" x="326" y="492.9717">enqeue prediction</text><path d="M424,523.8281 L497,523.8281 L497,532.1797 L487,542.1797 L424,542.1797 L424,523.8281 " fill="#EEEEEE" style="stroke:#000000;stroke-width:1.5;"/><rect fill="none" height="132.4063" style="stroke:#000000;stroke-width:1.5;" width="304" x="424" y="523.8281"/><text fill="#000000" font-family="sans-serif" font-size="13" font-weight="bold" lengthAdjust="spacing" textLength="28" x="439" y="538.3232">loop</text><text fill="#000000" font-family="sans-serif" font-size="11" font-weight="bold" lengthAdjust="spacing" textLength="99" x="512" y="537.2471">[not interrupted?]</text><polygon fill="#181818" points="451,570.5313,441,574.5313,451,578.5313,447,574.5313" style="stroke:#181818;stroke-width:1.0;"/><line style="stroke:#181818;stroke-width:1.0;" x1="445" x2="565" y1="574.5313" y2="574.5313"/><text fill="#000000" font-family="sans-serif" font-size="13" lengthAdjust="spacing" textLength="102" x="457" y="569.6748">deqeue prediction</text><line style="stroke:#181818;stroke-width:1.0;" x1="576" x2="618" y1="604.8828" y2="604.8828"/><line style="stroke:#181818;stroke-width:1.0;" x1="618" x2="618" y1="604.8828" y2="617.8828"/><line style="stroke:#181818;stroke-width:1.0;" x1="577" x2="618" y1="617.8828" y2="617.8828"/><polygon fill="#181818" points="587,613.8828,577,617.8828,587,621.8828,583,617.8828" style="stroke:#181818;stroke-width:1.0;"/><text fill="#000000" font-family="sans-serif" font-size="13" lengthAdjust="spacing" textLength="64" x="583" y="600.0264">pack bytes</text><polygon fill="#181818" points="700,644.2344,710,648.2344,700,652.2344,704,648.2344" style="stroke:#181818;stroke-width:1.0;"/><line style="stroke:#181818;stroke-width:1.0;" x1="576" x2="706" y1="648.2344" y2="648.2344"/><text fill="#000000" font-family="sans-serif" font-size="13" lengthAdjust="spacing" textLength="117" x="583" y="643.3779">send bytes on serial</text><line style="stroke:#181818;stroke-width:2.0;" x1="83" x2="101" y1="670.2344" y2="688.2344"/><line style="stroke:#181818;stroke-width:2.0;" x1="83" x2="101" y1="688.2344" y2="670.2344"/><line style="stroke:#181818;stroke-width:2.0;" x1="305" x2="323" y1="688.2344" y2="706.2344"/><line style="stroke:#181818;stroke-width:2.0;" x1="305" x2="323" y1="706.2344" y2="688.2344"/><line style="stroke:#181818;stroke-width:2.0;" x1="562" x2="580" y1="706.2344" y2="724.2344"/><line style="stroke:#181818;stroke-width:2.0;" x1="562" x2="580" y1="724.2344" y2="706.2344"/><!--SRC=[XLB1JiCm3BttAqoHkEq79ZGaaE020hPnu8IorjqYsYHr74JvUkniqoewYHwY9C_llJox5u7CjZF0w7-0AM5Hc8ezGVaMaKem4L9HRFmtb4iJmmQ91dYn9Lm-sksERrjXW7p14DlA1kCOodlRuX9DVH1eA9Vq2HD2kJ9TQ15UzLI2uh6VIjor9aRRM9NGcgePnY9BZAdbiGYT4LaXMTEkq1rVGbp80IJEcKoLXvUxssEo1q9qKyad-xn-XpKP5plBVD3jHhffjcXe3f65fhsqNuPHUw28n9X06aqnuWaa-wBrFa3dIJIahV4clwaXc2rqdGD9ew-WsYNtcIiodadvxgFooN6-t1E55_iveEkraxacen90GnmCdMUmJl9H2eprtZNsS3tJzufjZN_uUYtQEM6rdzumXUba7GXhAqcz-y-NiY_noNR4pGMSjRKWcEeJDWDZ726T8Z6FI17mJaxwR-oTYneZanzqIiUjJkMurp7y0W00]--></g></svg>