<?xml version="1.0" encoding="windows-1252" standalone="no"?>
<svg xmlns="http://www.w3.org/2000/svg" xmlns:xlink="http://www.w3.org/1999/xlink" contentStyleType="text/css" height="689px" preserveAspectRatio="none" style="width:1023px;height:689px;background:#FFFFFF;" version="1.1" viewBox="0 0 1023 689" width="1023px" zoomAndPan="magnify"><defs/><g><rect fill="#90EE90" height="677.5859" style="stroke:#181818;stroke-width:0.5;" width="171" x="11" y="6"/><text fill="#000000" font-family="sans-serif" font-size="13" font-weight="bold" lengthAdjust="spacing" textLength="147" x="23" y="18.0669">Raspberry Pico PCB</text><rect fill="#FFFFE0" height="677.5859" style="stroke:#181818;stroke-width:0.5;" width="248.5" x="194" y="6"/><text fill="#000000" font-family="sans-serif" font-size="13" font-weight="bold" lengthAdjust="spacing" textLength="103" x="266.75" y="18.0669">MiotyReciever</text><rect fill="#FA8072" height="677.5859" style="stroke:#181818;stroke-width:0.5;" width="466.5" x="457" y="6"/><text fill="#000000" font-family="sans-serif" font-size="13" font-weight="bold" lengthAdjust="spacing" textLength="124" x="628.25" y="18.0669">University Server</text><line style="stroke:#181818;stroke-width:0.5;stroke-dasharray:5.0,5.0;" x1="96.5" x2="96.5" y1="101.4297" y2="601.2891"/><line style="stroke:#181818;stroke-width:0.5;stroke-dasharray:5.0,5.0;" x1="254" x2="254" y1="101.4297" y2="601.2891"/><line style="stroke:#181818;stroke-width:0.5;stroke-dasharray:5.0,5.0;" x1="386" x2="386" y1="101.4297" y2="601.2891"/><line style="stroke:#181818;stroke-width:0.5;stroke-dasharray:5.0,5.0;" x1="533" x2="533" y1="101.4297" y2="601.2891"/><line style="stroke:#181818;stroke-width:0.5;stroke-dasharray:5.0,5.0;" x1="657" x2="657" y1="101.4297" y2="601.2891"/><line style="stroke:#181818;stroke-width:0.5;stroke-dasharray:5.0,5.0;" x1="886" x2="886" y1="101.4297" y2="601.2891"/><line style="stroke:#181818;stroke-width:0.5;stroke-dasharray:5.0,5.0;" x1="1001" x2="1001" y1="101.4297" y2="601.2891"/><rect fill="#E2E2F0" height="30.2969" rx="2.5" ry="2.5" style="stroke:#181818;stroke-width:0.5;" width="141" x="26" y="70.1328"/><text fill="#000000" font-family="sans-serif" font-size="14" lengthAdjust="spacing" textLength="127" x="33" y="90.1279">MiOTY Transmitter</text><rect fill="#E2E2F0" height="30.2969" rx="2.5" ry="2.5" style="stroke:#181818;stroke-width:0.5;" width="112" x="198" y="70.1328"/><text fill="#000000" font-family="sans-serif" font-size="14" lengthAdjust="spacing" textLength="98" x="205" y="90.1279">Mioty Antenna</text><rect fill="#E2E2F0" height="30.2969" rx="2.5" ry="2.5" style="stroke:#181818;stroke-width:0.5;" width="105" x="333.5" y="70.1328"/><text fill="#000000" font-family="sans-serif" font-size="14" lengthAdjust="spacing" textLength="91" x="340.5" y="90.1279">MQTT Broker</text><rect fill="#E2E2F0" height="30.2969" rx="2.5" ry="2.5" style="stroke:#181818;stroke-width:0.5;" width="144" x="461" y="70.1328"/><text fill="#000000" font-family="sans-serif" font-size="14" lengthAdjust="spacing" textLength="130" x="468" y="90.1279">MqttToDBInterface</text><text fill="#000000" font-family="sans-serif" font-size="14" lengthAdjust="spacing" textLength="56" x="626" y="98.1279">InfluxDB</text><path d="M639,49.1328 C639,39.1328 657,39.1328 657,39.1328 C657,39.1328 675,39.1328 675,49.1328 L675,75.1328 C675,85.1328 657,85.1328 657,85.1328 C657,85.1328 639,85.1328 639,75.1328 L639,49.1328 " fill="#E2E2F0" style="stroke:#181818;stroke-width:1.5;"/><path d="M639,49.1328 C639,59.1328 657,59.1328 657,59.1328 C657,59.1328 675,59.1328 675,49.1328 " fill="none" style="stroke:#181818;stroke-width:1.5;"/><rect fill="#E2E2F0" height="30.2969" rx="2.5" ry="2.5" style="stroke:#181818;stroke-width:0.5;" width="67" x="852.5" y="70.1328"/><text fill="#000000" font-family="sans-serif" font-size="14" lengthAdjust="spacing" textLength="53" x="859.5" y="90.1279">Grafana</text><text fill="#000000" font-family="sans-serif" font-size="14" lengthAdjust="spacing" textLength="32" x="982" y="98.1279">User</text><ellipse cx="1001" cy="33.6328" fill="#E2E2F0" rx="8" ry="8" style="stroke:#181818;stroke-width:0.5;"/><path d="M1001,41.6328 L1001,68.6328 M988,49.6328 L1014,49.6328 M1001,68.6328 L988,83.6328 M1001,68.6328 L1014,83.6328 " fill="none" style="stroke:#181818;stroke-width:0.5;"/><rect fill="#E2E2F0" height="30.2969" rx="2.5" ry="2.5" style="stroke:#181818;stroke-width:0.5;" width="141" x="26" y="601.2891"/><text fill="#000000" font-family="sans-serif" font-size="14" lengthAdjust="spacing" textLength="127" x="33" y="621.2842">MiOTY Transmitter</text><rect fill="#E2E2F0" height="30.2969" rx="2.5" ry="2.5" style="stroke:#181818;stroke-width:0.5;" width="112" x="198" y="601.2891"/><text fill="#000000" font-family="sans-serif" font-size="14" lengthAdjust="spacing" textLength="98" x="205" y="621.2842">Mioty Antenna</text><rect fill="#E2E2F0" height="30.2969" rx="2.5" ry="2.5" style="stroke:#181818;stroke-width:0.5;" width="105" x="333.5" y="601.2891"/><text fill="#000000" font-family="sans-serif" font-size="14" lengthAdjust="spacing" textLength="91" x="340.5" y="621.2842">MQTT Broker</text><rect fill="#E2E2F0" height="30.2969" rx="2.5" ry="2.5" style="stroke:#181818;stroke-width:0.5;" width="144" x="461" y="601.2891"/><text fill="#000000" font-family="sans-serif" font-size="14" lengthAdjust="spacing" textLength="130" x="468" y="621.2842">MqttToDBInterface</text><text fill="#000000" font-family="sans-serif" font-size="14" lengthAdjust="spacing" textLength="56" x="626" y="660.2842">InfluxDB</text><path d="M639,611.2891 C639,601.2891 657,601.2891 657,601.2891 C657,601.2891 675,601.2891 675,611.2891 L675,637.2891 C675,647.2891 657,647.2891 657,647.2891 C657,647.2891 639,647.2891 639,637.2891 L639,611.2891 " fill="#E2E2F0" style="stroke:#181818;stroke-width:1.5;"/><path d="M639,611.2891 C639,621.2891 657,621.2891 657,621.2891 C657,621.2891 675,621.2891 675,611.2891 " fill="none" style="stroke:#181818;stroke-width:1.5;"/><rect fill="#E2E2F0" height="30.2969" rx="2.5" ry="2.5" style="stroke:#181818;stroke-width:0.5;" width="67" x="852.5" y="601.2891"/><text fill="#000000" font-family="sans-serif" font-size="14" lengthAdjust="spacing" textLength="53" x="859.5" y="621.2842">Grafana</text><text fill="#000000" font-family="sans-serif" font-size="14" lengthAdjust="spacing" textLength="32" x="982" y="674.2842">User</text><ellipse cx="1001" cy="609.7891" fill="#E2E2F0" rx="8" ry="8" style="stroke:#181818;stroke-width:0.5;"/><path d="M1001,617.7891 L1001,644.7891 M988,625.7891 L1014,625.7891 M1001,644.7891 L988,659.7891 M1001,644.7891 L1014,659.7891 " fill="none" style="stroke:#181818;stroke-width:0.5;"/><path d="M370,113.4297 L457,113.4297 L457,120.5625 L447,130.5625 L370,130.5625 L370,113.4297 " fill="#EEEEEE" style="stroke:#000000;stroke-width:1.5;"/><rect fill="none" height="56.2656" style="stroke:#000000;stroke-width:1.5;" width="179" x="370" y="113.4297"/><text fill="#000000" font-family="sans-serif" font-size="13" font-weight="bold" lengthAdjust="spacing" textLength="42" x="385" y="126.4966">setup</text><polygon fill="#181818" points="397,157.6953,387,161.6953,397,165.6953,393,161.6953" style="stroke:#181818;stroke-width:1.0;"/><line style="stroke:#181818;stroke-width:1.0;" x1="391" x2="532" y1="161.6953" y2="161.6953"/><text fill="#000000" font-family="sans-serif" font-size="13" lengthAdjust="spacing" textLength="61" x="403" y="156.6294">subscribe</text><path d="M80.5,187.6953 L209.5,187.6953 L209.5,194.8281 L199.5,204.8281 L80.5,204.8281 L80.5,187.6953 " fill="#EEEEEE" style="stroke:#000000;stroke-width:1.5;"/><rect fill="none" height="185.7969" style="stroke:#000000;stroke-width:1.5;" width="592.5" x="80.5" y="187.6953"/><text fill="#000000" font-family="sans-serif" font-size="13" font-weight="bold" lengthAdjust="spacing" textLength="84" x="95.5" y="200.7622">onMessage</text><polygon fill="#181818" points="242,231.9609,252,235.9609,242,239.9609,246,235.9609" style="stroke:#181818;stroke-width:1.0;"/><line style="stroke:#181818;stroke-width:1.0;" x1="96.5" x2="248" y1="235.9609" y2="235.9609"/><text fill="#000000" font-family="sans-serif" font-size="13" lengthAdjust="spacing" textLength="94" x="103.5" y="230.895">send message</text><polygon fill="#181818" points="374,261.0938,384,265.0938,374,269.0938,378,265.0938" style="stroke:#181818;stroke-width:1.0;"/><line style="stroke:#181818;stroke-width:1.0;" x1="254" x2="380" y1="265.0938" y2="265.0938"/><text fill="#000000" font-family="sans-serif" font-size="13" lengthAdjust="spacing" textLength="108" x="261" y="260.0278">publish message</text><polygon fill="#181818" points="521,290.2266,531,294.2266,521,298.2266,525,294.2266" style="stroke:#181818;stroke-width:1.0;"/><line style="stroke:#181818;stroke-width:1.0;" x1="386" x2="527" y1="294.2266" y2="294.2266"/><text fill="#000000" font-family="sans-serif" font-size="13" lengthAdjust="spacing" textLength="123" x="393" y="289.1606">distribute message</text><line style="stroke:#181818;stroke-width:1.0;" x1="533" x2="575" y1="323.3594" y2="323.3594"/><line style="stroke:#181818;stroke-width:1.0;" x1="575" x2="575" y1="323.3594" y2="336.3594"/><line style="stroke:#181818;stroke-width:1.0;" x1="534" x2="575" y1="336.3594" y2="336.3594"/><polygon fill="#181818" points="544,332.3594,534,336.3594,544,340.3594,540,336.3594" style="stroke:#181818;stroke-width:1.0;"/><text fill="#000000" font-family="sans-serif" font-size="13" lengthAdjust="spacing" textLength="110" x="540" y="318.2935">decode message</text><polygon fill="#181818" points="645,361.4922,655,365.4922,645,369.4922,649,365.4922" style="stroke:#181818;stroke-width:1.0;"/><line style="stroke:#181818;stroke-width:1.0;" x1="533" x2="651" y1="365.4922" y2="365.4922"/><text fill="#000000" font-family="sans-serif" font-size="13" lengthAdjust="spacing" textLength="66" x="540" y="360.4263">store data</text><path d="M641,391.4922 L793,391.4922 L793,398.625 L783,408.625 L641,408.625 L641,391.4922 " fill="#EEEEEE" style="stroke:#000000;stroke-width:1.5;"/><rect fill="none" height="185.7969" style="stroke:#000000;stroke-width:1.5;" width="376" x="641" y="391.4922"/><text fill="#000000" font-family="sans-serif" font-size="13" font-weight="bold" lengthAdjust="spacing" textLength="107" x="656" y="404.5591">useDashboard</text><polygon fill="#181818" points="897,435.7578,887,439.7578,897,443.7578,893,439.7578" style="stroke:#181818;stroke-width:1.0;"/><line style="stroke:#181818;stroke-width:1.0;" x1="891" x2="1000" y1="439.7578" y2="439.7578"/><text fill="#000000" font-family="sans-serif" font-size="13" lengthAdjust="spacing" textLength="82" x="903" y="434.6919">request data</text><polygon fill="#181818" points="668,464.8906,658,468.8906,668,472.8906,664,468.8906" style="stroke:#181818;stroke-width:1.0;"/><line style="stroke:#181818;stroke-width:1.0;" x1="662" x2="885" y1="468.8906" y2="468.8906"/><text fill="#000000" font-family="sans-serif" font-size="13" lengthAdjust="spacing" textLength="69" x="674" y="463.8247">query data</text><line style="stroke:#181818;stroke-width:1.0;" x1="657" x2="699" y1="498.0234" y2="498.0234"/><line style="stroke:#181818;stroke-width:1.0;" x1="699" x2="699" y1="498.0234" y2="511.0234"/><line style="stroke:#181818;stroke-width:1.0;" x1="658" x2="699" y1="511.0234" y2="511.0234"/><polygon fill="#181818" points="668,507.0234,658,511.0234,668,515.0234,664,511.0234" style="stroke:#181818;stroke-width:1.0;"/><text fill="#000000" font-family="sans-serif" font-size="13" lengthAdjust="spacing" textLength="215" x="664" y="492.9575">evaluate query and collect results</text><polygon fill="#181818" points="874,536.1563,884,540.1563,874,544.1563,878,540.1563" style="stroke:#181818;stroke-width:1.0;"/><line style="stroke:#181818;stroke-width:1.0;" x1="657" x2="880" y1="540.1563" y2="540.1563"/><text fill="#000000" font-family="sans-serif" font-size="13" lengthAdjust="spacing" textLength="78" x="664" y="535.0903">send results</text><polygon fill="#181818" points="989,565.2891,999,569.2891,989,573.2891,993,569.2891" style="stroke:#181818;stroke-width:1.0;"/><line style="stroke:#181818;stroke-width:1.0;" x1="886" x2="995" y1="569.2891" y2="569.2891"/><text fill="#000000" font-family="sans-serif" font-size="13" lengthAdjust="spacing" textLength="91" x="893" y="564.2231">display results</text><!--SRC=[RP9DRkCm38NtFWN7NVS2MHI86w0eC47_t4MNjCqaGXN9fQYswUc7akt6IMPbIVpu7ldWFptZTeyWv7z0E59HDFuRocSCVKFC1tWqhOV7swg4gxzckvCx9d85G8yifZKzEe5oRHxgDwWPNTWR4U8ICC3QU3dK1RaEL7HKpe_Fr1hwJDWW-aRM-gzBLKLXwOISmwFYye9xgckesBzFlde_StrrHks2KRqNui7v1UtUNwxo8LBxLNMljhp1bWR9UbKfsQ5WWu6Wl7SR6xzNLQvEbtEjEyODZgEFv-DSs8fdU0t4gPo-HR5b7ti89B5NhMHwVPEsMK28JMZPD9G49j2xDOM0Mqfm3XkkRyQGj2LPxK-1PGQoOXyRQy9kJgGSKrrz5z2P86eOXUQ8bcO8jRxxNtaAH8VG9IddDXyy1bfXs3KUkTEs78AsZHajWEaZKf2X3wRtKsKbzFSSYUdv5A5Fj15rWO55pQFrrb8hwX2YbN3M-Zj0pkx8p0P8i-PmUek7NqJnVm00]--></g></svg>